:SAMPLES-PER-SECOND 30
:FULLY-SPECIFIED
:DEGREES
486
root  -4.89724 41.0073 0.368773 43.2374 -88.3319 -39.4701
RightUpLeg  3.26136 -0.959399 -0.737707
RightLeg  -7.71331 -21.426 3.68475
RightFoot  2.22096 -0.351208 3.12876
RightToes  -3.1126e-008 1.75238e-005 3.56266e-009
Spine  12.8802 1.30041 1.97692
Spine1  -21.4602 1.33128 -7.2661
HEad  -1.77294 -21.7658 4.326
LeftShoulder1  -0.0320009 3.65786 -13.7706
LeftArm  0.289816 60.7878 -44.7504
LeftForeArm  61.5725 -76.5358 -42.7899
LeftHand  -0.560089 -4.10274 7.12023
RightShoulder  -0.338082 -5.84909 6.5862
RightArm  -65.6787 14.0584 4.3546
RightForeArm  18.0597 65.7918 24.2646
RightHand  -0.138199 8.16857 -1.55467
LeftUpLeg  1.85812 1.50709 3.50691
LeftLeg  -4.04959 16.0875 -1.27705
LeftFoot  0.00975951 0.311365 -3.25364
LeftToes  4.78049e-008 1.46235e-008 1.34219e-009
487
root  -4.80254 41.0141 0.374741 60.4588 -88.8519 -56.8101
RightUpLeg  3.06683 -1.03183 -0.879447
RightLeg  -7.463 -20.6672 3.50742
RightFoot  2.30634 -0.349689 3.10147
RightToes  -3.1126e-008 1.75238e-005 3.56266e-009
Spine  12.9188 1.20891 1.94385
Spine1  -20.7878 1.28748 -7.58656
HEad  -2.99392 -23.3729 4.22487
LeftShoulder1  -0.0544817 3.7698 -13.5256
LeftArm  1.09091 61.5013 -45.1782
LeftForeArm  61.6531 -76.4346 -42.2122
LeftHand  -0.515687 -4.00106 6.64745
RightShoulder  -0.353325 -5.88735 7.0507
RightArm  -66.9106 14.0068 3.9473
RightForeArm  17.3693 64.4178 22.5922
RightHand  -0.183204 8.25862 -1.90363
LeftUpLeg  2.11514 1.42044 3.37122
LeftLeg  -4.43679 16.7453 -1.42185
LeftFoot  0.226516 0.315101 -3.30148
LeftToes  4.78049e-008 1.46235e-008 1.34219e-009
488
root  -4.71466 41.0134 0.390522 93.151 -88.9384 -89.7095
RightUpLeg  3.02583 -1.03621 -0.877787
RightLeg  -7.33449 -20.0611 3.4355
RightFoot  2.40169 -0.342981 2.98584
RightToes  -3.1126e-008 1.75238e-005 3.56266e-009
Spine  13.3536 1.05343 2.44329
Spine1  -20.8742 1.1721 -8.34596
HEad  -3.26011 -24.8323 4.11045
LeftShoulder1  -0.0585045 3.79702 -13.0967
LeftArm  2.99954 61.6191 -44.5713
LeftForeArm  61.1282 -76.2591 -41.4666
LeftHand  -0.545714 -4.21088 6.86629
RightShoulder  -0.330231 -5.67537 7.45169
RightArm  -66.8816 14.1435 4.17898
RightForeArm  17.1201 64.2229 22.4013
RightHand  0.0337745 7.40784 -0.0752369
LeftUpLeg  2.25482 1.42605 3.35586
LeftLeg  -4.38072 17.3801 -1.39116
LeftFoot  0.234234 0.314891 -3.28178
LeftToes  4.78049e-008 1.46235e-008 1.34219e-009
489
root  -4.61753 41.0147 0.405908 137.56 -88.5021 -134.284
RightUpLeg  2.8034 -0.959085 -0.873445
RightLeg  -7.03911 -19.1555 3.18701
RightFoot  2.48885 -0.347239 3.03507
RightToes  -3.1126e-008 1.75238e-005 3.56266e-009
Spine  13.3989 1.11479 2.349
Spine1  -20.6253 1.24445 -8.03095
HEad  -3.21774 -26.4308 3.68544
LeftShoulder1  0.0672224 3.17868 -13.7747
LeftArm  5.08779 61.4086 -42.7431
LeftForeArm  61.9132 -76.4269 -42.0827
LeftHand  -0.609809 -4.5744 7.38729
RightShoulder  -0.287928 -5.38841 7.5286
RightArm  -66.6658 16.1895 5.19676
RightForeArm  18.5633 64.8465 22.971
RightHand  -0.0319916 7.8939 -0.644333
LeftUpLeg  2.40108 1.45571 3.31937
LeftLeg  -4.34173 18.3705 -1.43668
LeftFoot  0.249161 0.318264 -3.29537
LeftToes  4.78049e-008 1.46235e-008 1.34219e-009
490
root  -4.51532 41.0127 0.422191 157.153 -87.3475 -154.097
RightUpLeg  2.7698 -0.862472 -0.823729
RightLeg  -7.10206 -18.0211 3.07364
RightFoot  2.71405 -0.3436 2.95906
RightToes  -3.1126e-008 1.75238e-005 3.56266e-009
Spine  13.1278 1.04502 2.64181
Spine1  -19.801 1.2523 -8.15111
HEad  -3.06746 -27.3989 3.51633
LeftShoulder1  0.0893118 3.07465 -13.8196
LeftArm  6.38791 60.7449 -41.9589
LeftForeArm  63.2444 -76.8353 -43.8991
LeftHand  -0.526706 -3.89985 6.85604
RightShoulder  -0.195755 -4.75913 7.78772
RightArm  -64.1135 18.0923 5.5761
RightForeArm  19.7288 66.2545 24.6517
RightHand  -0.193174 8.29669 -2.01905
LeftUpLeg  2.56375 1.52816 3.32515
LeftLeg  -4.13441 19.5852 -1.42028
LeftFoot  0.141185 0.325378 -3.35893
LeftToes  4.78049e-008 1.46235e-008 1.34219e-009
491
root  -4.41465 41.0052 0.461805 165.528 -85.8455 -162.681
RightUpLeg  2.54894 -0.864112 -0.87405
RightLeg  -6.84555 -16.5302 2.92013
RightFoot  2.80251 -0.341264 2.90309
RightToes  -3.1126e-008 1.75238e-005 3.56266e-009
Spine  12.9861 1.19135 2.98274
Spine1  -19.2641 1.4551 -8.34072
HEad  -2.52247 -28.0082 3.54615
LeftShoulder1  0.121985 2.91484 -13.718
LeftArm  7.67527 60.0406 -41.1776
LeftForeArm  64.4966 -77.1457 -45.356
LeftHand  -0.542385 -4.51185 6.64267
RightShoulder  -0.176049 -4.61563 8.01956
RightArm  -60.1541 20.3918 5.71197
RightForeArm  20.8788 67.8004 26.8409
RightHand  -0.190352 8.76997 -1.94403
LeftUpLeg  2.78136 1.60146 3.27141
LeftLeg  -3.99988 21.0676 -1.45191
LeftFoot  0.0207795 0.329668 -3.37689
LeftToes  4.78049e-008 1.46235e-008 1.34219e-009
492
root  -4.28515 41.0017 0.47449 168.802 -84.3094 -166.184
RightUpLeg  2.32829 -0.606529 -0.712892
RightLeg  -6.64965 -15.3146 2.59889
RightFoot  3.01812 -0.341922 2.87664
RightToes  -3.1126e-008 1.75238e-005 3.56266e-009
Spine  13.4311 1.33098 3.21574
Spine1  -19.4911 1.60176 -8.42525
HEad  -1.91628 -28.8763 3.49535
LeftShoulder1  0.136499 2.83697 -13.4408
LeftArm  9.10588 59.4577 -40.296
LeftForeArm  65.5259 -77.4399 -46.9489
LeftHand  -0.548557 -4.3009 6.85261
RightShoulder  -0.103711 -4.15008 8.11124
RightArm  -57.0544 23.0812 6.57546
RightForeArm  24.6221 69.8858 30.099
RightHand  -0.114003 8.84151 -1.31674
LeftUpLeg  2.90053 1.78851 3.35199
LeftLeg  -3.71018 22.4755 -1.48652
LeftFoot  -0.104777 0.337006 -3.45547
LeftToes  4.78049e-008 1.46235e-008 1.34219e-009
493
root  -4.18136 41.0004 0.50595 170.829 -83.0205 -168.395
RightUpLeg  2.08324 -0.530862 -0.712219
RightLeg  -6.35935 -14.0961 2.35372
RightFoot  3.12602 -0.35864 2.99258
RightToes  -3.1126e-008 1.75238e-005 3.56266e-009
Spine  13.1357 1.40661 3.51285
Spine1  -18.6157 1.75456 -8.45333
HEad  -1.66467 -29.4265 3.68379
LeftShoulder1  0.140176 2.81721 -13.3793
LeftArm  9.31584 58.7116 -40.3772
LeftForeArm  66.7699 -77.6847 -48.2376
LeftHand  -0.595914 -4.12 7.54417
RightShoulder  -0.0572324 -3.84159 8.56411
RightArm  -53.7132 25.4941 6.7256
RightForeArm  30.365 72.3464 35.0485
RightHand  -0.16677 9.01929 -1.73394
LeftUpLeg  3.12185 1.83866 3.31039
LeftLeg  -3.73119 23.6309 -1.56724
LeftFoot  -0.123697 0.335293 -3.40728
LeftToes  4.78049e-008 1.46235e-008 1.34219e-009
494
root  -4.08519 40.9993 0.529501 171.94 -82.1402 -169.519
RightUpLeg  1.73406 -0.490793 -0.727888
RightLeg  -6.12792 -13.245 2.2285
RightFoot  3.22915 -0.364423 3.02203
RightToes  -3.1126e-008 1.75238e-005 3.56266e-009
Spine  13.4007 1.40102 3.34659
Spine1  -19.0178 1.70732 -7.94193
HEad  -0.748904 -29.9094 3.54023
LeftShoulder1  0.189312 2.57525 -13.3715
LeftArm  10.0065 58.6793 -39.894
LeftForeArm  67.3135 -77.8446 -49.278
LeftHand  -0.64138 -4.37848 7.90236
RightShoulder  -0.0197976 -3.60934 8.77264
RightArm  -50.5747 27.6883 7.56174
RightForeArm  37.0979 74.7688 42.1832
RightHand  -0.205113 8.79306 -2.06276
LeftUpLeg  3.08767 1.82006 3.2494
LeftLeg  -3.71717 24.553 -1.58567
LeftFoot  -0.120778 0.342569 -3.50376
LeftToes  4.78049e-008 1.46235e-008 1.34219e-009
495
root  -3.99578 40.9984 0.543108 172.974 -81.4866 -170.511
RightUpLeg  1.38632 -0.457978 -0.750199
RightLeg  -5.96553 -12.6176 2.12124
RightFoot  3.34579 -0.35923 2.96355
RightToes  -3.1126e-008 1.75238e-005 3.56266e-009
Spine  13.602 1.3244 3.36406
Spine1  -19.3807 1.61138 -7.77141
HEad  -0.00911062 -29.7258 3.32408
LeftShoulder1  0.224654 2.39448 -13.1966
LeftArm  10.2133 58.7302 -39.954
LeftForeArm  67.5914 -77.862 -49.2883
LeftHand  -0.653769 -4.65483 7.84211
RightShoulder  0.0305869 -3.29861 9.11168
RightArm  -48.0369 29.4453 8.39031
RightForeArm  45.5618 76.8595 51.9433
RightHand  -0.176852 8.84449 -1.8297
LeftUpLeg  2.99661 1.82525 3.18896
LeftLeg  -3.76217 25.2504 -1.68517
LeftFoot  -0.0992764 0.341678 -3.47735
LeftToes  4.78049e-008 1.46235e-008 1.34219e-009
